<svg width="226" height="65" viewBox="0 0 226 65" fill="none" xmlns="http://www.w3.org/2000/svg">
<g clip-path="url(#clip0_1_147)">
<path d="M43.4942 53.2742C43.4894 56.2989 42.301 59.2041 40.1785 61.3798C38.0561 63.5554 35.1647 64.8322 32.1116 64.9421C31.4245 64.9421 30.7358 64.8915 30.0611 64.8338C26.7659 64.5619 23.5317 63.7954 20.4693 62.5606L20.554 62.4523C16.4294 61.0386 12.9678 58.1828 10.8192 54.4212C10.496 53.8601 10.2059 53.2809 9.95026 52.6867C8.49115 49.3018 8.13403 45.5508 8.92854 41.9557C9.72306 38.3605 11.6297 35.0999 14.3832 32.6275L21.068 41.2303L23.7172 44.6487L29.0509 51.5047L29.9587 52.6867H43.2823L43.4836 52.9507L43.4942 53.2742Z" fill="url(#paint0_linear_1_147)"/>
<path d="M27.8164 32.5489L30.8594 28.6305L30.9054 28.5727L35.409 22.7904L35.9282 22.1154L43.4748 12.3796L43.5261 12.3149H43.4801V11.6802C43.4838 8.65178 42.2986 5.74051 40.1747 3.5611C38.0508 1.3817 35.1545 0.104787 32.0975 1.06996e-06H32.8039C34.8417 -0.00051653 36.875 0.186762 38.8776 0.559491C42.6531 1.25191 46.2745 2.60233 49.5733 4.54791C53.0201 6.57892 56.0636 9.21582 58.554 12.3289C58.7165 12.5282 58.8648 12.7275 59.022 12.9269L43.934 32.3741L59.1227 51.9314C58.9284 52.1955 58.7271 52.456 58.5187 52.7095C55.9782 55.8649 52.8692 58.5268 49.349 60.5604C46.1599 62.4137 42.6747 63.7146 39.0436 64.4072C36.9991 64.7976 34.9215 64.9932 32.8393 64.9912H32.1328C35.1893 64.8812 38.0835 63.6017 40.2065 61.4219C42.3295 59.2422 43.5157 56.3321 43.5155 53.304V53.0015" fill="url(#paint1_linear_1_147)"/>
<path d="M43.4923 11.6732V12.3149H29.729L29.0349 13.2136L23.6093 20.1903L20.9601 23.6087L14.1535 32.3653L14.3672 32.6416C11.607 35.1163 9.6962 38.3825 8.90148 41.9842C8.10677 45.5859 8.46782 49.3435 9.93425 52.7322C10.1899 53.3265 10.4801 53.9057 10.8032 54.4668C12.9518 58.2284 16.4133 61.0841 20.538 62.4978L20.4533 62.608C16.5014 61.0123 12.9019 58.6686 9.85655 55.7083C8.88795 54.7748 7.97954 53.782 7.13671 52.7358C5.59512 50.8145 4.27583 48.7283 3.20355 46.5162C0.552968 41.0325 -0.488171 34.9218 0.198802 28.8807C0.885774 22.8396 3.27324 17.1111 7.08904 12.3481C7.96377 11.2507 8.91131 10.212 9.92541 9.23921C15.3588 3.98093 22.472 0.759904 30.0433 0.129365C30.7303 0.071663 31.4191 0.0331748 32.1203 0.0209351C35.1772 0.126154 38.0732 1.40321 40.1969 3.58252C42.3207 5.76183 43.5061 8.6729 43.5029 11.7012L43.4923 11.6732Z" fill="url(#paint2_linear_1_147)"/>
<path d="M80.3214 37.6058C78.1096 37.6587 75.9139 37.2195 73.8963 36.3206C72.1801 35.5321 70.7441 34.2493 69.776 32.64C68.7549 30.8358 68.1997 28.8098 68.16 26.7421C68.16 25.6493 68.1211 24.4813 68.1211 23.2276C68.1211 21.9739 68.1211 20.7796 68.16 19.6291C68.203 17.5715 68.7652 15.5573 69.7954 13.7698C70.7771 12.1597 72.2173 10.8726 73.9352 10.0699C75.9378 9.16719 78.1217 8.72767 80.3214 8.7847C81.9953 8.76185 83.6628 8.99183 85.2666 9.46666C86.6518 9.8758 87.9462 10.5408 89.0814 11.4267C90.1263 12.2374 90.9863 13.2575 91.6052 14.4202C92.2229 15.6109 92.5495 16.9285 92.5589 18.267C92.5738 18.3776 92.5608 18.49 92.521 18.5944C92.4813 18.6987 92.416 18.7917 92.3311 18.865C92.2454 18.947 92.1437 19.011 92.0323 19.0531C91.9209 19.0951 91.8021 19.1144 91.6829 19.1098H87.0362C86.7622 19.1241 86.4915 19.0444 86.2698 18.8842C86.0424 18.6772 85.8856 18.4053 85.8212 18.1061C85.6093 16.7989 84.8836 15.6278 83.8025 14.8486C82.7356 14.2443 81.5198 13.9465 80.2914 13.9884C78.8665 13.924 77.4725 14.4127 76.406 15.3505C75.3084 16.5888 74.7425 18.2024 74.8288 19.8477C74.7511 22.0322 74.7511 24.2703 74.8288 26.562C74.7475 28.2066 75.3128 29.8185 76.406 31.0593C77.4725 31.9971 78.8665 32.4858 80.2914 32.4214C81.5283 32.4636 82.7523 32.1607 83.8237 31.5471C84.3549 31.1693 84.8052 30.6908 85.1484 30.1394C85.4915 29.5881 85.7209 28.9748 85.823 28.3351C85.8875 28.036 86.0443 27.7641 86.2715 27.557C86.4933 27.3968 86.7639 27.3171 87.038 27.3314H91.6847C91.8038 27.3268 91.9227 27.3461 92.0341 27.3882C92.1455 27.4302 92.2471 27.4942 92.3329 27.5762C92.4203 27.6475 92.4874 27.7402 92.5273 27.8451C92.5673 27.95 92.5788 28.0635 92.5607 28.1742C92.553 29.5129 92.2262 30.8309 91.607 32.021C90.9885 33.1859 90.1284 34.2083 89.0832 35.0215C87.9474 35.9075 86.6524 36.5726 85.2666 36.9816C83.6594 37.4345 81.9919 37.6426 80.3214 37.5988V37.6058Z" fill="#F8F8F8"/>
<path d="M106.227 37.6041C104.296 37.6649 102.377 37.2894 100.614 36.506C99.1673 35.8281 97.963 34.7303 97.1614 33.3586C96.3443 31.9021 95.8988 30.2701 95.8633 28.6043C95.8633 28.0798 95.8245 27.4608 95.8245 26.7789C95.8245 26.0969 95.8245 25.4937 95.8633 25.0058C95.8968 23.3223 96.3682 21.6759 97.2321 20.2254C98.0764 18.8706 99.2981 17.7861 100.75 17.1025C102.482 16.3771 104.344 16.0033 106.225 16.0033C108.106 16.0033 109.968 16.3771 111.7 17.1025C113.15 17.7863 114.37 18.8709 115.211 20.2254C116.078 21.6769 116.564 23.3205 116.624 25.0058C116.624 25.5077 116.663 26.1039 116.663 26.7789C116.663 27.4538 116.663 28.064 116.624 28.6043C116.558 30.2729 116.093 31.9022 115.268 33.3586C114.468 34.732 113.263 35.8303 111.815 36.506C110.062 37.2907 108.15 37.6664 106.227 37.6041ZM106.227 33.1645C106.782 33.2056 107.34 33.1184 107.856 32.91C108.372 32.7015 108.831 32.3775 109.199 31.9633C109.938 30.9243 110.326 29.6807 110.308 28.4103C110.334 28.0081 110.347 27.4748 110.347 26.8103C110.347 26.1459 110.334 25.6126 110.308 25.2104C110.321 23.9445 109.933 22.7064 109.199 21.6696C108.835 21.2498 108.376 20.9204 107.86 20.7078C107.344 20.4953 106.784 20.4055 106.227 20.4457C105.668 20.407 105.107 20.4974 104.589 20.7098C104.071 20.9222 103.61 21.2508 103.242 21.6696C102.493 22.7005 102.095 23.9407 102.107 25.2104C102.081 25.6091 102.068 26.1424 102.068 26.8103C102.068 27.4783 102.081 28.0116 102.107 28.4103C102.091 29.6845 102.489 30.93 103.242 31.9633C103.614 32.3764 104.076 32.6996 104.593 32.9079C105.111 33.1162 105.67 33.204 106.227 33.1645Z" fill="#F8F8F8"/>
<path d="M128.706 37.597C127.476 37.6265 126.253 37.4082 125.11 36.9553C124.082 36.5292 123.169 35.8704 122.443 35.0319C121.695 34.1509 121.133 33.1308 120.789 32.0314C120.398 30.7827 120.166 29.4904 120.1 28.1847C120.1 27.6776 120.061 27.2212 120.061 26.8033C120.061 26.3854 120.061 25.9483 120.1 25.4675C120.13 24.1772 120.348 22.8981 120.748 21.6696C121.118 20.5778 121.695 19.566 122.449 18.6884C123.174 17.8406 124.086 17.1698 125.116 16.7283C126.258 16.2479 127.49 16.0097 128.731 16.0289C129.967 15.9984 131.194 16.2372 132.327 16.7283C133.256 17.1482 134.091 17.7494 134.78 18.496V9.81635C134.776 9.68336 134.799 9.55095 134.848 9.42713C134.898 9.30331 134.972 9.19062 135.066 9.09592C135.162 9.00306 135.276 8.93063 135.401 8.88311C135.526 8.8356 135.66 8.81401 135.794 8.81967H139.953C140.087 8.81401 140.22 8.8356 140.346 8.88311C140.471 8.93063 140.585 9.00306 140.68 9.09592C140.775 9.19056 140.849 9.30324 140.898 9.42708C140.947 9.55091 140.971 9.68334 140.967 9.81635V36.1982C140.971 36.3309 140.948 36.4632 140.899 36.5868C140.849 36.7103 140.775 36.8225 140.68 36.9164C140.585 37.0104 140.472 37.084 140.347 37.1328C140.222 37.1816 140.089 37.2045 139.955 37.2001H136.069C135.824 37.1936 135.591 37.0919 135.421 36.9169C135.326 36.8226 135.251 36.7101 135.202 36.5861C135.153 36.4622 135.13 36.3296 135.135 36.1965V34.8413C134.431 35.6641 133.565 36.3374 132.592 36.8207C131.378 37.3841 130.045 37.6504 128.706 37.597ZM130.562 32.8113C131.417 32.8549 132.261 32.6156 132.962 32.1311C133.561 31.6938 134.024 31.0998 134.299 30.4158C134.584 29.701 134.74 28.9423 134.76 28.1742C134.818 27.6709 134.846 27.1647 134.845 26.6582C134.847 26.1621 134.818 25.6664 134.76 25.1737C134.739 24.448 134.569 23.7342 134.261 23.0755C133.956 22.4297 133.489 21.8722 132.904 21.4563C132.182 21.0346 131.359 20.8122 130.52 20.8122C129.681 20.8122 128.858 21.0346 128.136 21.4563C127.532 21.8873 127.078 22.4934 126.838 23.1909C126.569 23.953 126.412 24.749 126.37 25.5549C126.318 26.3806 126.318 27.2087 126.37 28.0343C126.412 28.8385 126.57 29.6326 126.838 30.3931C127.078 31.0906 127.532 31.6967 128.136 32.1276C128.844 32.6189 129.698 32.862 130.562 32.8183V32.8113Z" fill="#F8F8F8"/>
<path d="M155.408 37.604C154.045 37.7245 152.672 37.5499 151.384 37.0922C150.096 36.6345 148.924 35.9048 147.949 34.9537C146.974 34.0025 146.22 32.8528 145.74 31.5842C145.259 30.3157 145.063 28.9588 145.165 27.6077V25.9308C145.21 24.0669 145.694 22.2391 146.577 20.5925C147.382 19.14 148.604 17.9568 150.089 17.1934C151.726 16.374 153.543 15.9679 155.378 16.0114C157.37 15.9372 159.344 16.4156 161.076 17.3927C162.561 18.2872 163.749 19.5946 164.49 21.1521C165.282 22.862 165.674 24.7267 165.638 26.6075V27.5325C165.639 27.7925 165.539 28.043 165.358 28.2319C165.265 28.3295 165.152 28.4064 165.027 28.4574C164.901 28.5083 164.766 28.5322 164.631 28.5274H151.445V28.8107C151.461 29.6123 151.624 30.4042 151.925 31.1484C152.192 31.8213 152.641 32.4083 153.223 32.8445C153.838 33.2854 154.584 33.5112 155.343 33.4862C155.897 33.5035 156.449 33.4003 156.959 33.1837C157.348 33.0135 157.709 32.7859 158.029 32.5088C158.266 32.3166 158.483 32.1016 158.677 31.8671C158.831 31.6477 159.03 31.4635 159.262 31.3268C159.468 31.2489 159.689 31.2137 159.91 31.2236H164.186C164.305 31.2197 164.423 31.2393 164.535 31.2813C164.646 31.3234 164.748 31.387 164.834 31.4684C164.92 31.5405 164.986 31.6335 165.024 31.7384C165.063 31.8433 165.074 31.9564 165.055 32.0665C164.984 32.6527 164.761 33.2106 164.406 33.6856C163.908 34.3999 163.286 35.0219 162.57 35.5233C161.656 36.1786 160.642 36.6862 159.567 37.027C158.222 37.4409 156.817 37.6358 155.408 37.604ZM151.45 24.8502H159.322V24.7278C159.338 23.8853 159.181 23.0484 158.861 22.2677C158.579 21.5955 158.105 21.0194 157.497 20.6101C156.862 20.1983 156.114 19.9895 155.355 20.012C154.603 19.9881 153.862 20.1972 153.236 20.6101C152.64 21.0254 152.176 21.6004 151.899 22.2677C151.579 23.0484 151.422 23.8853 151.438 24.7278L151.45 24.8502Z" fill="#F8F8F8"/>
<path d="M170.667 37.2054C170.404 37.2042 170.151 37.1028 169.961 36.9221C169.862 36.8302 169.784 36.7183 169.733 36.594C169.681 36.4697 169.657 36.3359 169.663 36.2017V17.398C169.657 17.264 169.681 17.1305 169.733 17.0066C169.784 16.8826 169.862 16.771 169.961 16.6793C170.151 16.4986 170.404 16.3972 170.667 16.396H174.426C174.56 16.3917 174.693 16.4146 174.818 16.4634C174.943 16.5122 175.056 16.5858 175.151 16.6797C175.246 16.7736 175.32 16.8859 175.37 17.0094C175.419 17.133 175.442 17.2652 175.438 17.398V18.76C176.054 17.9688 176.83 17.3136 177.716 16.8367C178.765 16.2787 179.939 15.9896 181.13 15.9956C182.437 15.8572 183.755 16.121 184.905 16.7512C186.054 17.3814 186.98 18.3473 187.555 19.5172C188.198 18.4501 189.119 17.5738 190.222 16.98C191.39 16.3216 192.714 15.9825 194.058 15.9974C195.384 15.9793 196.693 16.3021 197.855 16.9346C199.027 17.6076 199.97 18.6123 200.561 19.8196C201.292 21.3742 201.639 23.0789 201.573 24.7925V36.1894C201.577 36.3242 201.552 36.4584 201.5 36.5827C201.447 36.707 201.368 36.8186 201.267 36.9098C201.078 37.0918 200.825 37.1934 200.561 37.1931H196.561C196.426 37.1975 196.293 37.1745 196.168 37.1257C196.043 37.0769 195.93 37.0033 195.835 36.9094C195.74 36.8155 195.666 36.7033 195.617 36.5798C195.567 36.4562 195.544 36.3239 195.549 36.1912V25.1142C195.592 24.2341 195.434 23.3556 195.088 22.5439C194.813 21.9989 194.376 21.5504 193.835 21.2587C193.291 20.9758 192.684 20.8321 192.069 20.8408C191.498 20.8436 190.936 20.9873 190.434 21.2587C189.877 21.5698 189.425 22.037 189.136 22.6016C188.756 23.404 188.582 24.2869 188.629 25.1719V36.2489C188.633 36.3817 188.61 36.514 188.561 36.6376C188.512 36.7612 188.438 36.8735 188.343 36.9675C188.255 37.0582 188.149 37.1301 188.031 37.1788C187.914 37.2275 187.788 37.252 187.661 37.2508H183.657C183.523 37.2547 183.389 37.2316 183.264 37.1829C183.139 37.1343 183.025 37.061 182.93 36.9675C182.836 36.8729 182.763 36.7604 182.715 36.6368C182.667 36.5132 182.645 36.3812 182.651 36.2489V25.1142C182.696 24.2313 182.529 23.3502 182.163 22.5439C181.88 21.9748 181.427 21.5058 180.865 21.201C180.338 20.9233 179.749 20.7797 179.152 20.7831C178.58 20.7845 178.018 20.9282 177.516 21.201C176.96 21.5122 176.508 21.9794 176.218 22.5439C175.846 23.3299 175.674 24.1946 175.719 25.0618V36.1772C175.723 36.3099 175.7 36.4422 175.651 36.5657C175.601 36.6893 175.527 36.8015 175.432 36.8954C175.337 36.9893 175.224 37.063 175.099 37.1118C174.974 37.1606 174.841 37.1835 174.707 37.1791L170.667 37.2054Z" fill="#F8F8F8"/>
<path d="M215.783 37.604C213.079 37.7455 210.429 36.8214 208.411 35.0337C207.455 34.0482 206.706 32.8839 206.209 31.6089C205.712 30.3339 205.477 28.9737 205.517 27.6076V25.9308C205.568 24.0678 206.052 22.2414 206.929 20.5925C207.735 19.1388 208.96 17.9555 210.448 17.1934C212.085 16.3735 213.902 15.9675 215.737 16.0114C217.729 15.9382 219.702 16.4165 221.435 17.3927C222.919 18.2889 224.106 19.5958 224.848 21.1521C225.64 22.862 226.033 24.7267 225.996 26.6075V27.5325C225.995 27.7933 225.893 28.0437 225.71 28.2319C225.617 28.3298 225.504 28.4069 225.379 28.4579C225.253 28.5088 225.118 28.5325 224.983 28.5274H211.822V28.8107C211.837 29.613 212.002 30.4055 212.309 31.1484C212.577 31.8205 213.026 32.4071 213.607 32.8445C214.222 33.2851 214.968 33.5108 215.726 33.4862C216.281 33.5035 216.833 33.4002 217.342 33.1837C217.73 33.0104 218.09 32.7831 218.413 32.5088C218.652 32.3189 218.869 32.1037 219.061 31.8671C219.217 31.6483 219.418 31.4642 219.651 31.3268C219.857 31.2477 220.078 31.2125 220.299 31.2236H224.591C224.71 31.2201 224.828 31.2399 224.939 31.2819C225.051 31.3239 225.152 31.3873 225.239 31.4684C225.325 31.5405 225.391 31.6335 225.429 31.7384C225.468 31.8433 225.478 31.9564 225.46 32.0664C225.386 32.6521 225.162 33.2094 224.81 33.6856C224.309 34.3986 223.688 35.0203 222.973 35.5233C222.058 36.178 221.045 36.6855 219.97 37.027C218.619 37.4443 217.207 37.6399 215.792 37.6058L215.783 37.604ZM211.825 24.8502H219.704V24.7278C219.721 23.8846 219.561 23.047 219.236 22.2677C218.958 21.597 218.489 21.021 217.886 20.61C217.251 20.1983 216.503 19.9895 215.744 20.012C214.992 19.9885 214.251 20.1975 213.625 20.61C213.034 21.0286 212.573 21.6029 212.295 22.2677C211.969 23.047 211.81 23.8846 211.827 24.7278L211.825 24.8502Z" fill="#F8F8F8"/>
<path d="M70.5353 52.8249C70.4913 52.8266 70.4474 52.8197 70.4061 52.8043C70.3649 52.789 70.3272 52.7657 70.2952 52.7357C70.2639 52.7047 70.2397 52.6674 70.2242 52.6264C70.2087 52.5854 70.2022 52.5416 70.2051 52.4979V42.6222C70.2008 42.5765 70.2066 42.5305 70.2222 42.4873C70.2377 42.4441 70.2627 42.4048 70.2952 42.3722C70.3259 42.34 70.3632 42.3147 70.4046 42.2981C70.4461 42.2815 70.4907 42.274 70.5353 42.276H70.8144C70.8617 42.2726 70.9091 42.2794 70.9535 42.2957C70.9979 42.3121 71.0382 42.3378 71.0717 42.3709C71.1052 42.4041 71.1312 42.444 71.1477 42.4879C71.1643 42.5319 71.171 42.5789 71.1676 42.6257V47.0268H77.04V42.6257C77.0357 42.5801 77.0415 42.534 77.0571 42.4908C77.0726 42.4476 77.0975 42.4083 77.1301 42.3757C77.1607 42.3435 77.1981 42.3182 77.2395 42.3016C77.281 42.285 77.3256 42.2774 77.3702 42.2795H77.6758C77.7225 42.2765 77.7694 42.2836 77.8132 42.3003C77.8569 42.3169 77.8965 42.3427 77.9292 42.3759C77.9619 42.4092 77.9869 42.449 78.0027 42.4927C78.0184 42.5365 78.0243 42.583 78.0202 42.6292V52.5049C78.0231 52.5486 78.0166 52.5924 78.0011 52.6334C77.9856 52.6744 77.9613 52.7117 77.9301 52.7427C77.861 52.8041 77.7703 52.8362 77.6775 52.8319H77.3985C77.3545 52.8336 77.3106 52.8266 77.2693 52.8113C77.2281 52.796 77.1903 52.7727 77.1583 52.7427C77.1271 52.7117 77.1028 52.6744 77.0873 52.6334C77.0718 52.5924 77.0653 52.5486 77.0682 52.5049V47.936H71.1888V52.5049C71.1908 52.5492 71.1832 52.5933 71.1665 52.6343C71.1497 52.6754 71.1242 52.7123 71.0917 52.7427C71.0226 52.8041 70.9319 52.8362 70.8391 52.8319L70.5353 52.8249Z" fill="#F8F8F8"/>
<path d="M84.1646 52.9788C83.5612 52.9998 82.9651 52.8434 82.4515 52.5293C82.0013 52.2354 81.6506 51.8146 81.4448 51.3211C81.2235 50.7737 81.113 50.1885 81.1198 49.5988V45.3202C81.118 45.2766 81.1251 45.2331 81.1406 45.1923C81.1561 45.1514 81.1796 45.114 81.2099 45.0823C81.2413 45.0515 81.2789 45.0276 81.3203 45.0123C81.3617 44.9969 81.406 44.9904 81.4501 44.9932H81.7097C81.7549 44.99 81.8003 44.9964 81.8429 45.0117C81.8855 45.0271 81.9243 45.0511 81.9569 45.0823C81.9871 45.1141 82.0107 45.1515 82.0261 45.1923C82.0416 45.2331 82.0487 45.2766 82.0471 45.3202V49.5166C82.0471 51.2302 82.8017 52.087 84.3112 52.087C84.6331 52.1008 84.9544 52.0474 85.2541 51.9302C85.5539 51.813 85.8253 51.6347 86.0509 51.4068C86.508 50.8854 86.7406 50.2076 86.699 49.5184V45.3097C86.696 45.266 86.7026 45.2222 86.7181 45.1812C86.7336 45.1401 86.7578 45.1029 86.7891 45.0719C86.8199 45.0403 86.8574 45.0159 86.899 45.0004C86.9405 44.985 86.985 44.979 87.0293 44.9827H87.2889C87.3341 44.9797 87.3794 44.986 87.422 45.0014C87.4646 45.0167 87.5035 45.0408 87.5361 45.0719C87.5664 45.1036 87.59 45.1409 87.6054 45.1817C87.6209 45.2226 87.628 45.2661 87.6262 45.3097V52.4787C87.628 52.5222 87.6209 52.5657 87.6054 52.6066C87.59 52.6474 87.5664 52.6847 87.5361 52.7164C87.4684 52.7766 87.3798 52.8086 87.2889 52.8056H87.0293C86.9852 52.8078 86.9412 52.801 86.8999 52.7856C86.8585 52.7703 86.8209 52.7467 86.7891 52.7164C86.7578 52.6854 86.7336 52.6482 86.7181 52.6072C86.7026 52.5662 86.696 52.5224 86.699 52.4787V51.7653C86.43 52.1126 86.0953 52.4048 85.7135 52.6256C85.2373 52.8753 84.7032 52.997 84.1646 52.9788Z" fill="#F8F8F8"/>
<path d="M94.1184 52.9805C93.5762 52.9982 93.0383 52.8809 92.5537 52.6395C92.1641 52.4291 91.8254 52.1374 91.5611 51.7845V52.4979C91.5629 52.5415 91.5558 52.585 91.5403 52.6258C91.5249 52.6667 91.5013 52.704 91.471 52.7357C91.4033 52.7958 91.3147 52.8278 91.2238 52.8249H90.9642C90.9202 52.8267 90.8762 52.8196 90.835 52.8043C90.7937 52.789 90.756 52.7657 90.724 52.7357C90.6927 52.7047 90.6686 52.6675 90.653 52.6265C90.6375 52.5855 90.6309 52.5416 90.6339 52.4979V42.4561C90.6299 42.4112 90.6359 42.3661 90.6515 42.3238C90.667 42.2815 90.6918 42.2431 90.724 42.2113C90.7558 42.181 90.7935 42.1573 90.8348 42.1417C90.876 42.1261 90.92 42.1189 90.9642 42.1204H91.2238C91.3147 42.1175 91.4033 42.1494 91.471 42.2095C91.5018 42.2423 91.5257 42.2808 91.5412 42.3229C91.5567 42.3649 91.5634 42.4097 91.5611 42.4544V46.0196C91.8316 45.6762 92.1692 45.3901 92.5537 45.1785C93.0361 44.9305 93.5751 44.8101 94.1184 44.8289C94.6381 44.8147 95.1538 44.9225 95.6232 45.1436C96.0152 45.3453 96.3535 45.6359 96.6104 45.9916C96.868 46.3468 97.0594 46.7448 97.1756 47.1666C97.296 47.5849 97.3613 48.0169 97.3699 48.4518V49.2928C97.3613 49.7277 97.296 50.1597 97.1756 50.578C97.0565 50.9988 96.8653 51.3963 96.6104 51.7531C96.3549 52.1083 96.0161 52.3969 95.6232 52.5941C95.1612 52.8432 94.6444 52.9759 94.1184 52.9805ZM94.0284 52.094C94.5291 52.122 95.0254 51.9869 95.4413 51.7094C95.7858 51.4456 96.0453 51.0884 96.1884 50.6812C96.3401 50.2444 96.4251 49.7877 96.4409 49.3261V48.485C96.4257 48.0233 96.3406 47.5665 96.1884 47.1299C96.0443 46.6855 95.7517 46.3028 95.3589 46.0448C94.966 45.7867 94.4962 45.6688 94.0266 45.7101C93.5351 45.6894 93.0499 45.8268 92.6437 46.1018C92.2933 46.3542 92.0157 46.693 91.8384 47.0844C91.6648 47.4579 91.5699 47.8625 91.5594 48.2734C91.5594 48.4221 91.5594 48.6232 91.5594 48.8575V49.4485C91.5803 49.8694 91.6747 50.2835 91.8384 50.6724C92.0033 51.0749 92.2748 51.4258 92.6243 51.6883C93.0333 51.9752 93.5278 52.1175 94.0284 52.0923V52.094Z" fill="#F8F8F8"/>
<path d="M105.181 52.8249C105.135 52.8279 105.089 52.8215 105.046 52.8062C105.002 52.7909 104.962 52.7668 104.929 52.7357C104.898 52.7039 104.875 52.6666 104.86 52.6257C104.844 52.5849 104.837 52.5414 104.839 52.4979V45.8674H103.482C103.438 45.8692 103.394 45.8622 103.353 45.8469C103.312 45.8316 103.274 45.8083 103.242 45.7783C103.211 45.746 103.186 45.7075 103.171 45.6654C103.155 45.6232 103.149 45.5782 103.152 45.5335V45.3219C103.149 45.2782 103.156 45.2344 103.171 45.1935C103.187 45.1525 103.211 45.1154 103.242 45.0844C103.274 45.0535 103.311 45.0295 103.353 45.014C103.394 44.9986 103.438 44.9921 103.482 44.9949H104.839V44.1347C104.834 43.7158 104.898 43.299 105.028 42.9001C105.151 42.5356 105.393 42.2216 105.715 42.0067C106.144 41.7649 106.635 41.6513 107.127 41.6797H107.919C107.964 41.6766 108.009 41.683 108.052 41.6984C108.094 41.7138 108.133 41.7378 108.166 41.7689C108.196 41.8006 108.22 41.8379 108.235 41.8788C108.251 41.9196 108.258 41.9631 108.256 42.0067V42.2182C108.26 42.2631 108.254 42.3083 108.239 42.3506C108.223 42.393 108.198 42.4314 108.166 42.4633C108.134 42.4951 108.095 42.5196 108.052 42.535C108.01 42.5504 107.964 42.5563 107.919 42.5522H107.127C106.924 42.5263 106.718 42.5516 106.527 42.6259C106.337 42.7002 106.168 42.821 106.038 42.9771C105.829 43.3542 105.732 43.7822 105.759 44.2115V45.0281H107.77C107.814 45.0253 107.859 45.0319 107.9 45.0473C107.941 45.0627 107.979 45.0867 108.01 45.1176C108.041 45.1486 108.066 45.1858 108.081 45.2267C108.097 45.2677 108.104 45.3115 108.101 45.3551V45.5667C108.104 45.6115 108.097 45.6563 108.082 45.6985C108.066 45.7407 108.042 45.7791 108.011 45.8115C107.978 45.8414 107.941 45.8647 107.9 45.88C107.858 45.8953 107.814 45.9023 107.77 45.9006H105.766V52.5311C105.768 52.5747 105.761 52.6182 105.745 52.659C105.73 52.6999 105.706 52.7372 105.676 52.7689C105.643 52.7994 105.604 52.823 105.561 52.8383C105.519 52.8536 105.474 52.8604 105.429 52.8581L105.181 52.8249Z" fill="#F8F8F8"/>
<path d="M112.944 52.9805C112.3 53.0021 111.664 52.844 111.107 52.5241C110.619 52.228 110.228 51.7995 109.978 51.2896C109.717 50.7423 109.575 50.1464 109.563 49.5411V48.256C109.574 47.6505 109.716 47.0543 109.978 46.5074C110.227 45.9998 110.619 45.5745 111.107 45.2834C111.671 44.9847 112.3 44.8284 112.94 44.8284C113.58 44.8284 114.209 44.9847 114.773 45.2834C115.261 45.5745 115.653 45.9998 115.902 46.5074C116.168 47.0532 116.309 47.6501 116.317 48.256C116.317 48.4028 116.317 48.6162 116.317 48.8977V49.5394C116.308 50.1451 116.166 50.7416 115.902 51.2879C115.653 51.7978 115.261 52.2262 114.773 52.5224C114.219 52.842 113.585 53.0008 112.944 52.9805ZM112.944 52.1062C113.261 52.1221 113.579 52.0733 113.877 51.963C114.175 51.8526 114.447 51.6829 114.676 51.4645C115.157 50.9248 115.409 50.2232 115.383 49.5044V48.3924C115.412 47.6716 115.159 46.9675 114.676 46.427C114.204 45.9929 113.584 45.7516 112.94 45.7516C112.296 45.7516 111.676 45.9929 111.204 46.427C110.723 46.9687 110.471 47.6719 110.498 48.3924V49.5044C110.474 50.2227 110.726 50.9232 111.204 51.4645C111.434 51.6829 111.708 51.852 112.007 51.9615C112.306 52.071 112.625 52.1185 112.944 52.101V52.1062Z" fill="#F8F8F8"/>
<path d="M119.271 52.8248C119.227 52.8266 119.183 52.8196 119.142 52.8043C119.101 52.7889 119.063 52.7656 119.031 52.7356C119 52.7046 118.976 52.6674 118.96 52.6264C118.945 52.5853 118.938 52.5415 118.941 52.4978V45.3411C118.938 45.2955 118.944 45.2498 118.96 45.2068C118.975 45.1638 119 45.1244 119.031 45.091C119.062 45.0588 119.099 45.0336 119.141 45.017C119.182 45.0004 119.227 44.9929 119.271 44.9949H119.518C119.564 44.9935 119.61 45.0013 119.652 45.0178C119.695 45.0344 119.733 45.0593 119.766 45.091C119.8 45.1227 119.828 45.1615 119.846 45.2047C119.864 45.2479 119.872 45.2944 119.87 45.3411V46.0283C120.041 45.6905 120.319 45.4173 120.661 45.2502C121.067 45.0624 121.512 44.9742 121.959 44.9931H122.517C122.563 44.9892 122.608 44.9951 122.651 45.0105C122.694 45.0259 122.732 45.0504 122.765 45.0823C122.795 45.114 122.818 45.1514 122.834 45.1922C122.849 45.233 122.856 45.2765 122.855 45.3201V45.5317C122.858 45.6217 122.825 45.7094 122.765 45.7765C122.732 45.807 122.693 45.8306 122.65 45.8459C122.608 45.8612 122.562 45.8679 122.517 45.8656H121.869C121.607 45.8449 121.343 45.8801 121.096 45.9689C120.849 46.0577 120.624 46.198 120.436 46.3803C120.249 46.5627 120.103 46.7828 120.008 47.0258C119.914 47.2689 119.873 47.5291 119.889 47.789V52.4663C119.891 52.5112 119.883 52.556 119.865 52.5972C119.847 52.6384 119.82 52.675 119.785 52.7042C119.717 52.7634 119.629 52.7952 119.538 52.7933L119.271 52.8248Z" fill="#F8F8F8"/>
<path d="M131.295 52.8247C131.204 52.8276 131.115 52.7957 131.048 52.7355C131.017 52.7038 130.994 52.6665 130.978 52.6257C130.963 52.5848 130.956 52.5413 130.958 52.4978V43.1816H127.955C127.911 43.1853 127.867 43.1792 127.825 43.1638C127.783 43.1484 127.746 43.124 127.715 43.0924C127.683 43.0619 127.657 43.0249 127.64 42.9839C127.624 42.9429 127.616 42.8988 127.618 42.8546V42.6238C127.615 42.5776 127.622 42.5314 127.639 42.4882C127.656 42.4451 127.682 42.406 127.715 42.3737C127.746 42.3413 127.783 42.3158 127.824 42.2992C127.866 42.2826 127.911 42.2752 127.955 42.2776H134.924C134.972 42.2745 135.02 42.2814 135.065 42.298C135.109 42.3146 135.15 42.3404 135.184 42.3737C135.246 42.4421 135.278 42.5319 135.274 42.6238V42.8546C135.277 42.9003 135.27 42.9463 135.253 42.989C135.237 43.0318 135.21 43.0702 135.176 43.1016C135.142 43.1329 135.102 43.1564 135.058 43.1702C135.014 43.184 134.967 43.1879 134.921 43.1816H131.918V52.4978C131.92 52.5413 131.913 52.5848 131.898 52.6256C131.882 52.6664 131.859 52.7038 131.828 52.7355C131.757 52.7977 131.664 52.8297 131.569 52.8247H131.295Z" fill="#F8F8F8"/>
<path d="M138.863 52.9789C138.425 52.9991 137.987 52.9239 137.581 52.7587C137.176 52.5934 136.811 52.3421 136.514 52.0224C135.91 51.3183 135.562 50.4333 135.527 49.5098V48.3085C135.564 47.6782 135.729 47.0619 136.014 46.4971C136.27 45.9924 136.664 45.5684 137.15 45.2731C137.669 44.9731 138.262 44.8217 138.863 44.836C139.5 44.8161 140.128 44.9789 140.673 45.3046C141.181 45.6309 141.58 46.098 141.821 46.6475C142.104 47.3028 142.241 48.0106 142.224 48.7229V48.9485C142.226 48.9938 142.219 49.039 142.202 49.0812C142.185 49.1234 142.16 49.1616 142.127 49.1933C142.056 49.2518 141.967 49.2834 141.874 49.2825H136.456V49.4294C136.473 49.8747 136.581 50.3118 136.774 50.7145C136.959 51.1107 137.243 51.4537 137.599 51.7112C137.976 51.9776 138.433 52.1112 138.897 52.0906C139.268 52.1029 139.637 52.0373 139.981 51.8983C140.217 51.7809 140.433 51.6294 140.624 51.4489C140.749 51.3475 140.86 51.2299 140.954 51.0992C141.01 51.0099 141.083 50.9317 141.168 50.8684C141.247 50.8383 141.331 50.8252 141.415 50.83H141.655C141.743 50.8274 141.829 50.8573 141.896 50.9139C141.927 50.9404 141.951 50.9743 141.966 51.0125C141.981 51.0506 141.986 51.0919 141.98 51.1325C141.947 51.3249 141.865 51.5056 141.74 51.657C141.559 51.8935 141.34 52.0995 141.092 52.2672C140.794 52.4828 140.463 52.6498 140.112 52.7621C139.71 52.8986 139.288 52.9718 138.863 52.9789ZM136.456 48.4432H141.267V48.3785C141.274 47.9108 141.174 47.4477 140.975 47.0234C140.786 46.6243 140.481 46.2894 140.1 46.0608C139.719 45.8322 139.278 45.7199 138.833 45.7382C138.389 45.7176 137.949 45.8291 137.57 46.0581C137.191 46.2871 136.89 46.6233 136.705 47.0234C136.514 47.4497 136.418 47.9121 136.426 48.3785L136.456 48.4432Z" fill="#F8F8F8"/>
<path d="M147.759 52.9786C147.129 52.9959 146.506 52.8519 145.949 52.5607C145.454 52.2889 145.057 51.8715 144.813 51.3664C144.543 50.7838 144.401 50.1507 144.398 49.5095V48.3082C144.397 47.6649 144.539 47.0293 144.813 46.446C145.057 45.9424 145.454 45.5268 145.949 45.257C146.506 44.9658 147.129 44.8219 147.759 44.8392C148.233 44.8312 148.705 44.9052 149.154 45.0577C149.509 45.1876 149.837 45.3815 150.12 45.6295C150.36 45.8512 150.556 46.115 150.698 46.4075C150.823 46.667 150.894 46.949 150.906 47.2364C150.914 47.2814 150.91 47.3276 150.894 47.3706C150.878 47.4135 150.851 47.4516 150.816 47.4812C150.749 47.5382 150.664 47.5698 150.576 47.5703H150.355C150.316 47.5738 150.276 47.5695 150.238 47.5575C150.2 47.5455 150.165 47.526 150.134 47.5004C150.073 47.4258 150.024 47.3413 149.991 47.2504C149.841 46.7653 149.53 46.3445 149.108 46.0561C148.695 45.8185 148.223 45.7004 147.745 45.7151C147.111 45.6987 146.496 45.9291 146.032 46.3569C145.782 46.6328 145.59 46.9547 145.466 47.3043C145.343 47.6538 145.29 48.0241 145.311 48.3939C145.292 48.7434 145.292 49.0936 145.311 49.443C145.271 50.1912 145.529 50.925 146.032 51.4853C146.496 51.9131 147.111 52.1435 147.745 52.127C148.222 52.144 148.694 52.0283 149.108 51.7931C149.53 51.5019 149.841 51.0788 149.991 50.5918C150.025 50.5031 150.074 50.4204 150.134 50.347C150.165 50.3214 150.2 50.302 150.238 50.29C150.276 50.278 150.316 50.2736 150.355 50.2771H150.569C150.657 50.2774 150.742 50.309 150.809 50.3662C150.844 50.3957 150.871 50.4339 150.887 50.4768C150.903 50.5197 150.907 50.566 150.899 50.6111C150.889 50.8308 150.843 51.0474 150.763 51.2528C150.676 51.4852 150.552 51.7019 150.394 51.8944C150.219 52.1113 150.011 52.3001 149.778 52.454C149.504 52.6239 149.207 52.7519 148.895 52.8334C148.525 52.9337 148.142 52.9825 147.759 52.9786Z" fill="#F8F8F8"/>
<path d="M153.776 52.8232C153.685 52.8261 153.597 52.7942 153.529 52.734C153.498 52.7025 153.474 52.6652 153.459 52.6243C153.443 52.5835 153.435 52.5399 153.437 52.4962V42.4544C153.435 42.4097 153.441 42.365 153.457 42.3229C153.472 42.2809 153.496 42.2423 153.527 42.2096C153.595 42.1494 153.683 42.1175 153.774 42.1204H154.034C154.078 42.1188 154.122 42.1258 154.163 42.1411C154.204 42.1564 154.242 42.1797 154.274 42.2096C154.306 42.2414 154.331 42.2798 154.347 42.3221C154.362 42.3644 154.368 42.4096 154.364 42.4544V46.0197C154.637 45.6719 154.977 45.3812 155.364 45.1646C155.844 44.92 156.382 44.8048 156.922 44.8306C157.528 44.8091 158.128 44.9634 158.647 45.2747C159.108 45.5651 159.47 45.9861 159.685 46.483C159.922 47.0266 160.039 47.6136 160.03 48.2053V52.491C160.032 52.5345 160.025 52.578 160.009 52.6189C159.994 52.6597 159.97 52.6971 159.94 52.7287C159.872 52.7889 159.784 52.8208 159.693 52.8179H159.44C159.396 52.8196 159.352 52.8126 159.311 52.7973C159.27 52.7819 159.232 52.7586 159.2 52.7287C159.169 52.6977 159.144 52.6605 159.129 52.6195C159.113 52.5785 159.107 52.5347 159.11 52.491V48.277C159.149 47.5967 158.937 46.9255 158.513 46.3886C158.294 46.1532 158.025 45.9693 157.725 45.8503C157.425 45.7314 157.103 45.6805 156.78 45.7014C156.457 45.6886 156.135 45.7431 155.834 45.8615C155.533 45.9799 155.261 46.1595 155.035 46.3886C154.577 46.909 154.344 47.5876 154.387 48.277V52.4857C154.39 52.5294 154.384 52.5732 154.368 52.6142C154.353 52.6552 154.328 52.6925 154.297 52.7235C154.265 52.7535 154.227 52.7768 154.186 52.7921C154.145 52.8075 154.101 52.8144 154.057 52.8127L153.776 52.8232Z" fill="#F8F8F8"/>
<path d="M167.727 52.8233C167.683 52.8249 167.639 52.8179 167.597 52.8026C167.556 52.7873 167.518 52.764 167.486 52.7341C167.455 52.7031 167.431 52.6658 167.415 52.6248C167.4 52.5838 167.393 52.54 167.396 52.4963V42.4545C167.392 42.4096 167.398 42.3644 167.414 42.3221C167.429 42.2798 167.454 42.2415 167.486 42.2097C167.518 42.1794 167.556 42.1557 167.597 42.1401C167.638 42.1245 167.682 42.1172 167.727 42.1187H167.986C168.077 42.1158 168.166 42.1477 168.233 42.2079C168.264 42.2406 168.288 42.2792 168.304 42.3212C168.319 42.3633 168.326 42.408 168.324 42.4527V52.4875C168.325 52.5311 168.318 52.5746 168.303 52.6154C168.287 52.6563 168.264 52.6937 168.233 52.7253C168.166 52.7855 168.077 52.8174 167.986 52.8145L167.727 52.8233Z" fill="#F8F8F8"/>
<path d="M174.258 52.9785C173.821 52.9977 173.385 52.922 172.98 52.7568C172.575 52.5916 172.212 52.3408 171.916 52.0221C171.315 51.3214 170.968 50.4419 170.93 49.5234V48.3222C170.964 47.6914 171.13 47.0744 171.418 46.5107C171.673 46.0078 172.064 45.5843 172.546 45.2867C173.089 44.9931 173.698 44.8418 174.317 44.8473C174.935 44.8528 175.542 45.0149 176.079 45.3182C176.589 45.6409 176.99 46.1091 177.227 46.6611C177.514 47.3151 177.653 48.0236 177.635 48.7366V48.9621C177.635 49.0079 177.627 49.0533 177.609 49.0954C177.591 49.1376 177.564 49.1756 177.53 49.207C177.462 49.2662 177.374 49.298 177.283 49.2961H171.865V49.4447C171.882 49.89 171.99 50.3272 172.183 50.7299C172.368 51.1255 172.652 51.4679 173.007 51.7249C173.374 51.9844 173.816 52.1177 174.267 52.1043C174.923 52.1275 175.562 51.8974 176.05 51.4625C176.174 51.3593 176.285 51.2419 176.381 51.1129C176.435 51.0221 176.508 50.9434 176.594 50.882C176.673 50.8513 176.757 50.8382 176.842 50.8436H177.082C177.169 50.842 177.255 50.8718 177.322 50.9275C177.354 50.9535 177.378 50.9877 177.391 51.0261C177.405 51.0646 177.408 51.1061 177.4 51.146C177.373 51.3389 177.292 51.5206 177.167 51.6706C176.981 51.9039 176.763 52.1095 176.518 52.2809C176.22 52.4951 175.889 52.6621 175.538 52.7757C175.128 52.9128 174.699 52.9842 174.267 52.9873L174.258 52.9785ZM171.858 48.4428H176.699V48.3782C176.706 47.9105 176.606 47.4473 176.407 47.023C176.217 46.623 175.912 46.2876 175.53 46.0589C175.148 45.8303 174.706 45.7186 174.26 45.7379C173.802 45.7252 173.35 45.8469 172.962 46.0876C172.601 46.3233 172.315 46.6548 172.137 47.044C171.945 47.4703 171.85 47.9327 171.858 48.3991V48.4428Z" fill="#F8F8F8"/>
<path d="M182.278 52.9804C181.812 52.9842 181.352 52.8806 180.934 52.6779C180.54 52.4919 180.197 52.2141 179.934 51.8684C179.683 51.5421 179.548 51.1423 179.551 50.7318C179.544 50.4106 179.616 50.0926 179.762 49.8057C179.908 49.5188 180.123 49.2718 180.388 49.0864C181.036 48.6424 181.786 48.3681 182.569 48.2891L184.971 47.9622V47.4376C184.989 47.2008 184.954 46.9631 184.868 46.7411C184.783 46.5191 184.65 46.3182 184.479 46.1524C184.031 45.8059 183.467 45.6403 182.901 45.689C182.448 45.6649 181.997 45.7718 181.603 45.9968C181.302 46.1878 181.074 46.4727 180.955 46.8064C180.941 46.8706 180.904 46.9281 180.852 46.9691C180.8 47.0101 180.736 47.0323 180.669 47.0319H180.422C180.374 47.0369 180.326 47.0308 180.281 47.0141C180.236 46.9974 180.195 46.9706 180.162 46.9358C180.111 46.867 180.083 46.7835 180.084 46.6979C180.1 46.5135 180.155 46.3346 180.247 46.1734C180.372 45.9328 180.539 45.7156 180.74 45.5317C180.995 45.3062 181.289 45.1285 181.609 45.0071C182.024 44.8554 182.464 44.7836 182.907 44.7956C183.413 44.7805 183.918 44.8636 184.392 45.0403C184.724 45.1596 185.022 45.356 185.262 45.6131C185.501 45.8702 185.675 46.1805 185.768 46.5178C185.857 46.8159 185.903 47.125 185.904 47.4358V52.4541C185.907 52.4978 185.9 52.5416 185.885 52.5826C185.869 52.6237 185.845 52.6609 185.814 52.6919C185.782 52.7219 185.744 52.7452 185.703 52.7605C185.662 52.7759 185.618 52.7828 185.574 52.7811H185.314C185.223 52.784 185.134 52.7521 185.067 52.6919C185.037 52.6602 185.013 52.6228 184.998 52.582C184.982 52.5412 184.975 52.4977 184.977 52.4541V51.7407C184.835 51.9472 184.662 52.1312 184.464 52.2863C184.205 52.4855 183.913 52.6397 183.601 52.7426C183.178 52.8984 182.73 52.9789 182.278 52.9804ZM182.433 52.1062C182.884 52.1155 183.33 52.014 183.732 51.8107C184.124 51.5959 184.445 51.2719 184.653 50.8787C184.897 50.3903 185.013 49.8492 184.991 49.305V48.798L183.048 49.0672C182.385 49.1245 181.742 49.3193 181.16 49.639C180.97 49.7365 180.809 49.8826 180.696 50.0621C180.582 50.2417 180.518 50.4482 180.512 50.6602C180.499 50.9593 180.604 51.2518 180.803 51.4767C181.007 51.6926 181.261 51.8559 181.543 51.9523C181.832 52.0501 182.134 52.1003 182.439 52.1009L182.433 52.1062Z" fill="#F8F8F8"/>
<path d="M189.157 52.8248C189.113 52.8265 189.069 52.8194 189.028 52.8041C188.986 52.7888 188.949 52.7655 188.917 52.7356C188.885 52.7046 188.861 52.6674 188.846 52.6264C188.83 52.5853 188.824 52.5415 188.827 52.4978V45.3411C188.823 45.2955 188.83 45.2498 188.845 45.2068C188.861 45.1638 188.885 45.1244 188.917 45.091C188.947 45.0589 188.985 45.0338 189.026 45.0172C189.068 45.0006 189.112 44.993 189.157 44.9949H189.404C189.45 44.9935 189.495 45.0013 189.538 45.0178C189.58 45.0344 189.619 45.0593 189.651 45.091C189.686 45.1227 189.713 45.1615 189.731 45.2047C189.749 45.2479 189.758 45.2944 189.756 45.3411V46.0283C189.925 45.689 190.203 45.4152 190.547 45.2502C190.952 45.0624 191.398 44.9742 191.845 44.9931H192.403C192.448 44.9892 192.494 44.9951 192.537 45.0105C192.579 45.0259 192.618 45.0504 192.65 45.0823C192.68 45.114 192.704 45.1514 192.72 45.1922C192.735 45.233 192.742 45.2765 192.74 45.3201V45.5317C192.743 45.6217 192.711 45.7094 192.65 45.7765C192.617 45.807 192.578 45.8306 192.536 45.8459C192.493 45.8612 192.448 45.8679 192.403 45.8656H191.755C191.493 45.8449 191.229 45.8801 190.982 45.9689C190.735 46.0577 190.51 46.198 190.322 46.3803C190.134 46.5627 189.988 46.7828 189.894 47.0258C189.799 47.2689 189.759 47.5291 189.775 47.789V52.4663C189.777 52.5112 189.769 52.556 189.751 52.5972C189.733 52.6384 189.705 52.675 189.671 52.7042C189.602 52.7634 189.514 52.7952 189.424 52.7933L189.157 52.8248Z" fill="#F8F8F8"/>
<path d="M194.971 52.8248C194.927 52.8268 194.883 52.82 194.842 52.8047C194.8 52.7893 194.763 52.7658 194.731 52.7356C194.698 52.7052 194.673 52.6683 194.656 52.6272C194.639 52.5862 194.632 52.5421 194.634 52.4978V45.3288C194.632 45.2846 194.639 45.2405 194.656 45.1994C194.673 45.1584 194.698 45.1214 194.731 45.0911C194.761 45.0591 194.799 45.0344 194.84 45.0186C194.882 45.0029 194.927 44.9966 194.971 45.0001H195.231C195.275 44.9964 195.319 45.0024 195.361 45.0178C195.402 45.0333 195.44 45.0577 195.471 45.0893C195.502 45.1203 195.526 45.1576 195.542 45.1986C195.557 45.2396 195.564 45.2834 195.561 45.3271V46.0265C195.835 45.6803 196.175 45.39 196.561 45.1715C197.041 44.9268 197.578 44.8117 198.118 44.8375C198.727 44.8153 199.329 44.9696 199.851 45.2816C200.308 45.5742 200.667 45.9947 200.882 46.4899C201.118 47.0335 201.236 47.6204 201.227 48.2121V52.4978C201.228 52.5414 201.221 52.5849 201.206 52.6257C201.19 52.6666 201.167 52.7039 201.137 52.7356C201.069 52.7958 200.98 52.8277 200.889 52.8248H200.63C200.586 52.8276 200.541 52.8211 200.5 52.8057C200.459 52.7902 200.421 52.7662 200.39 52.7353C200.359 52.7043 200.334 52.6672 200.319 52.6262C200.303 52.5853 200.297 52.5415 200.299 52.4978V48.2891C200.338 47.6088 200.126 46.9376 199.702 46.4007C199.484 46.1653 199.215 45.9814 198.915 45.8624C198.615 45.7435 198.292 45.6926 197.97 45.7135C197.647 45.7016 197.325 45.7565 197.024 45.8749C196.724 45.9932 196.452 46.1723 196.225 46.4007C195.769 46.9224 195.536 47.6 195.577 48.2891V52.4978C195.58 52.5415 195.573 52.5853 195.558 52.6263C195.542 52.6673 195.518 52.7046 195.487 52.7356C195.455 52.7658 195.417 52.7893 195.376 52.8047C195.335 52.82 195.291 52.8268 195.247 52.8248H194.971Z" fill="#F8F8F8"/>
<path d="M204.301 43.3791C204.256 43.3812 204.211 43.3742 204.168 43.3586C204.126 43.343 204.087 43.319 204.054 43.2882C203.993 43.2212 203.961 43.1334 203.964 43.0434V42.4524C203.961 42.3608 203.993 42.2713 204.054 42.2024C204.086 42.1696 204.124 42.1441 204.167 42.1275C204.21 42.1109 204.255 42.1036 204.301 42.1062H204.866C204.912 42.1048 204.958 42.1126 205 42.1292C205.043 42.1457 205.081 42.1706 205.114 42.2024C205.148 42.2341 205.176 42.2729 205.194 42.316C205.212 42.3592 205.22 42.4058 205.218 42.4524V43.0242C205.22 43.0701 205.212 43.1159 205.194 43.1583C205.176 43.2006 205.148 43.2385 205.114 43.269C205.045 43.3282 204.957 43.36 204.866 43.3581L204.301 43.3791ZM204.464 52.8212C204.419 52.8239 204.373 52.8174 204.331 52.8021C204.288 52.7867 204.249 52.7629 204.217 52.7321C204.185 52.701 204.161 52.6638 204.146 52.6228C204.13 52.5818 204.123 52.5379 204.126 52.4942V45.3252C204.124 45.2816 204.13 45.2378 204.146 45.1968C204.161 45.1559 204.186 45.1187 204.217 45.0878C204.248 45.0568 204.286 45.0328 204.327 45.0174C204.368 45.002 204.413 44.9955 204.457 44.9983H204.716C204.762 44.9953 204.807 45.0016 204.849 45.017C204.892 45.0323 204.931 45.0563 204.964 45.0874C204.994 45.1191 205.017 45.1565 205.033 45.1973C205.048 45.2382 205.055 45.2816 205.054 45.3252V52.4942C205.055 52.5378 205.048 52.5813 205.033 52.6221C205.017 52.663 204.994 52.7004 204.964 52.7321C204.896 52.7922 204.807 52.8241 204.716 52.8212H204.464Z" fill="#F8F8F8"/>
<path d="M208.378 52.8249C208.329 52.8304 208.28 52.8253 208.234 52.8098C208.188 52.7944 208.146 52.7691 208.111 52.7357C208.08 52.7047 208.056 52.6674 208.04 52.6264C208.025 52.5854 208.018 52.5416 208.021 52.4979V45.3289C208.018 45.2852 208.025 45.2415 208.04 45.2005C208.056 45.1596 208.08 45.1224 208.111 45.0914C208.143 45.0605 208.18 45.0365 208.222 45.0211C208.263 45.0056 208.307 44.9991 208.351 45.002H208.611C208.656 44.9989 208.701 45.0053 208.744 45.0206C208.787 45.036 208.825 45.06 208.858 45.0911C208.888 45.1228 208.912 45.1601 208.927 45.201C208.943 45.2418 208.95 45.2853 208.948 45.3289V46.0284C209.218 45.681 209.556 45.3903 209.941 45.1733C210.46 44.9361 211.028 44.8224 211.599 44.8415C212.17 44.8607 212.729 45.012 213.231 45.2834C213.688 45.576 214.047 45.9966 214.262 46.4917C214.499 47.0353 214.616 47.6223 214.607 48.214V52.4997C214.608 52.5432 214.601 52.5867 214.586 52.6275C214.57 52.6683 214.547 52.7057 214.517 52.7374C214.484 52.7679 214.445 52.7916 214.402 52.8069C214.36 52.8222 214.315 52.8289 214.269 52.8267H214.017C213.972 52.8289 213.927 52.8222 213.884 52.8069C213.842 52.7916 213.803 52.7679 213.77 52.7374C213.739 52.7057 213.716 52.6683 213.7 52.6275C213.685 52.5867 213.678 52.5432 213.68 52.4997V48.2909C213.718 47.6118 213.508 46.9417 213.09 46.4025C212.87 46.1669 212.599 45.9828 212.298 45.8639C211.998 45.745 211.673 45.6943 211.35 45.7153C211.028 45.7024 210.706 45.7569 210.406 45.8753C210.107 45.9937 209.835 46.1734 209.61 46.4025C209.152 46.9229 208.919 47.6015 208.962 48.2909V52.4997C208.964 52.5432 208.957 52.5867 208.941 52.6275C208.926 52.6683 208.902 52.7057 208.872 52.7374C208.804 52.7976 208.716 52.8296 208.625 52.8267L208.378 52.8249Z" fill="#F8F8F8"/>
<path d="M220.495 56.1402C219.953 56.1596 219.413 56.0722 218.905 55.8831C218.542 55.741 218.214 55.522 217.945 55.2415C217.738 55.0282 217.574 54.777 217.464 54.5018C217.385 54.3108 217.336 54.1093 217.316 53.9038C217.309 53.8588 217.313 53.8127 217.329 53.7699C217.345 53.7271 217.371 53.689 217.406 53.659C217.437 53.6263 217.474 53.6002 217.515 53.5824C217.557 53.5646 217.601 53.5556 217.646 53.5558H217.848C217.923 53.5534 217.998 53.5735 218.061 53.6136C218.142 53.6806 218.195 53.7745 218.211 53.8776C218.295 54.0739 218.394 54.2628 218.51 54.4424C218.675 54.6799 218.898 54.8722 219.158 55.0019C219.544 55.1829 219.968 55.267 220.394 55.2467C220.871 55.2599 221.346 55.1882 221.797 55.0351C222.166 54.9018 222.472 54.636 222.653 54.2902C222.877 53.8281 222.98 53.3175 222.952 52.8057V51.7566C222.687 52.1094 222.349 52.4011 221.959 52.6116C221.479 52.8294 220.956 52.9421 220.428 52.9421C219.899 52.9421 219.377 52.8294 218.897 52.6116C218.501 52.4162 218.16 52.1274 217.904 51.7706C217.647 51.4154 217.455 51.0174 217.339 50.5956C217.219 50.1769 217.152 49.7453 217.138 49.3104V48.4746C217.152 48.0397 217.219 47.6081 217.339 47.1894C217.453 46.7666 217.644 46.3683 217.904 46.0144C218.162 45.6573 218.502 45.3664 218.897 45.1664C219.365 44.9472 219.878 44.8395 220.396 44.8516C220.939 44.8328 221.478 44.9533 221.961 45.2014C222.345 45.4129 222.683 45.6989 222.954 46.0424V45.3552C222.951 45.2633 222.984 45.1739 223.045 45.1052C223.077 45.0728 223.116 45.0475 223.159 45.0309C223.201 45.0144 223.247 45.0069 223.293 45.009H223.533C223.58 45.0056 223.627 45.0124 223.672 45.0287C223.716 45.0451 223.757 45.0708 223.79 45.1039C223.824 45.1371 223.85 45.177 223.866 45.221C223.883 45.265 223.889 45.3119 223.886 45.3587V52.7025C223.893 53.2973 223.796 53.8888 223.6 54.4511C223.408 54.97 223.045 55.4094 222.568 55.6978C221.936 56.0396 221.218 56.1977 220.499 56.1541L220.495 56.1402ZM220.495 52.0993C220.995 52.1227 221.489 51.9799 221.897 51.6936C222.247 51.4311 222.518 51.0802 222.683 50.6778C222.847 50.2888 222.941 49.8746 222.962 49.4538V48.368C222.941 47.9471 222.847 47.5329 222.683 47.144C222.519 46.74 222.247 46.3872 221.897 46.1228C221.489 45.8367 220.995 45.6939 220.495 45.7172C219.993 45.6899 219.497 45.8276 219.082 46.1088C218.734 46.3705 218.473 46.7283 218.33 47.137C218.175 47.5733 218.088 48.0301 218.07 48.4921V49.3331C218.088 49.7951 218.176 50.2518 218.33 50.6883C218.473 51.097 218.734 51.4547 219.082 51.7164C219.5 51.9902 219.995 52.1233 220.495 52.0958V52.0993Z" fill="#F8F8F8"/>
</g>
<defs>
<linearGradient id="paint0_linear_1_147" x1="34.7145" y1="63.6496" x2="12.2623" y2="29.523" gradientUnits="userSpaceOnUse">
<stop stop-color="#1A7FC3"/>
<stop offset="1" stop-color="#211F53"/>
</linearGradient>
<linearGradient id="paint1_linear_1_147" x1="43.4695" y1="71.1004" x2="43.4695" y2="6.10917" gradientUnits="userSpaceOnUse">
<stop stop-color="#211F53"/>
<stop offset="0.74" stop-color="#1D81C4"/>
</linearGradient>
<linearGradient id="paint2_linear_1_147" x1="-0.00695801" y1="31.3145" x2="43.5029" y2="31.3145" gradientUnits="userSpaceOnUse">
<stop stop-color="#1578BE"/>
<stop offset="1" stop-color="#211F53"/>
</linearGradient>
<clipPath id="clip0_1_147">
<rect width="226" height="65" fill="white"/>
</clipPath>
</defs>
</svg>
