<svg width="95" height="22" viewBox="0 0 95 22" fill="none" xmlns="http://www.w3.org/2000/svg">
<path d="M8.64297 21.475C8.25964 21.475 7.8763 21.325 7.49297 21.025C7.10964 20.725 6.83464 20.2667 6.66797 19.65C6.5013 19.0167 6.38464 18.2917 6.31797 17.475C6.2513 16.6417 6.21797 15.7667 6.21797 14.85C6.21797 13.55 6.2763 12.225 6.39297 10.875C6.50964 9.50833 6.65964 8.21667 6.84297 7C7.04297 5.78333 7.2513 4.75833 7.46797 3.925C7.18464 3.975 6.9263 4.01667 6.69297 4.05C6.45964 4.08333 6.25964 4.11667 6.09297 4.15C5.24297 4.3 4.46797 4.475 3.76797 4.675C3.08464 4.875 2.53464 5.1 2.11797 5.35C1.71797 5.6 1.51797 5.88333 1.51797 6.2C1.51797 6.3 1.55964 6.43333 1.64297 6.6C1.6763 6.66667 1.69297 6.725 1.69297 6.775C1.69297 6.89167 1.64297 6.95 1.54297 6.95C1.40964 6.95 1.24297 6.85 1.04297 6.65C0.892969 6.51667 0.759635 6.3 0.642969 6C0.542969 5.7 0.492969 5.4 0.492969 5.1C0.492969 4.66667 0.609635 4.33333 0.842969 4.1C1.14297 3.8 1.71797 3.53333 2.56797 3.3C3.43464 3.06667 4.40964 2.875 5.49297 2.725C5.8763 2.675 6.39297 2.625 7.04297 2.575C7.69297 2.525 8.4013 2.5 9.16797 2.5C10.1513 2.5 11.168 2.55833 12.218 2.675C13.268 2.79167 14.243 2.99167 15.143 3.275C16.0596 3.55833 16.8013 3.96667 17.368 4.5C17.9346 5.01667 18.218 5.68333 18.218 6.5C18.218 7.41667 18.0013 8.31667 17.568 9.2C17.1346 10.0667 16.5263 10.85 15.743 11.55C14.9596 12.25 14.043 12.8083 12.993 13.225C11.943 13.625 10.8013 13.825 9.56797 13.825C9.3013 13.825 9.03464 13.8167 8.76797 13.8C8.51797 13.7833 8.2513 13.75 7.96797 13.7C7.93464 14.0167 7.90964 14.3333 7.89297 14.65C7.8763 14.9667 7.85964 15.275 7.84297 15.575C7.84297 15.7417 7.83464 15.925 7.81797 16.125C7.81797 16.325 7.81797 16.5333 7.81797 16.75C7.81797 17.3 7.84297 17.8583 7.89297 18.425C7.95964 18.9917 8.0763 19.4667 8.24297 19.85C8.40964 20.2167 8.65964 20.4 8.99297 20.4C9.15964 20.4 9.33464 20.3667 9.51797 20.3C9.7013 20.2333 9.81797 20.1667 9.86797 20.1H10.043C10.0096 20.55 9.8513 20.8917 9.56797 21.125C9.3013 21.3583 8.99297 21.475 8.64297 21.475ZM8.06797 12.675H8.39297C9.3763 12.675 10.3846 12.5167 11.418 12.2C12.4513 11.8667 13.4013 11.4083 14.268 10.825C15.1346 10.2417 15.8346 9.55833 16.368 8.775C16.9013 7.975 17.168 7.10833 17.168 6.175C17.168 5.49167 16.9013 4.96667 16.368 4.6C15.8513 4.23333 15.1763 3.98333 14.343 3.85C13.5096 3.7 12.6263 3.625 11.693 3.625C11.3263 3.625 10.9596 3.63333 10.593 3.65C10.2263 3.66667 9.86797 3.69167 9.51797 3.725L9.59297 3.875C9.54297 4.09167 9.4513 4.49167 9.31797 5.075C9.2013 5.64167 9.05964 6.33333 8.89297 7.15C8.74297 7.95 8.59297 8.825 8.44297 9.775C8.29297 10.725 8.16797 11.6917 8.06797 12.675ZM19.2266 20.1C18.8599 20.1 18.5266 19.95 18.2266 19.65C17.9432 19.35 17.7349 18.8917 17.6016 18.275C17.5349 17.9917 17.4849 17.6333 17.4516 17.2C17.4349 16.7667 17.4266 16.3083 17.4266 15.825C17.4266 15.0917 17.4516 14.3333 17.5016 13.55C17.5682 12.7667 17.6516 12.05 17.7516 11.4C17.8516 10.7333 17.9682 10.225 18.1016 9.875C18.1849 9.675 18.3349 9.5 18.5516 9.35C18.7849 9.2 19.0849 9.125 19.4516 9.125C19.7016 9.125 19.9516 9.15833 20.2016 9.225C20.1516 9.40833 20.0516 9.84167 19.9016 10.525C19.7682 11.2083 19.6516 11.9667 19.5516 12.8C19.4849 13.3833 19.4266 13.9833 19.3766 14.6C19.3266 15.2 19.3016 15.7667 19.3016 16.3C19.3016 16.9833 19.3599 17.5583 19.4766 18.025C19.5932 18.475 19.7849 18.7 20.0516 18.7C20.3682 18.7 20.6432 18.5167 20.8766 18.15C21.1266 17.7667 21.3432 17.2917 21.5266 16.725C21.7099 16.1583 21.8516 15.5917 21.9516 15.025C22.1016 14.1917 22.2349 13.3 22.3516 12.35C22.4682 11.3833 22.6016 10.5583 22.7516 9.875C22.8016 9.675 22.9432 9.5 23.1766 9.35C23.4266 9.2 23.7349 9.125 24.1016 9.125C24.3516 9.125 24.6016 9.15833 24.8516 9.225C24.7182 9.59167 24.5849 10.1417 24.4516 10.875C24.3349 11.6083 24.2349 12.4167 24.1516 13.3C24.0682 14.1833 24.0266 15.0583 24.0266 15.925C24.0266 16.3583 24.0432 16.8333 24.0766 17.35C24.1266 17.8667 24.2182 18.3083 24.3516 18.675C24.5016 19.0417 24.7099 19.225 24.9766 19.225H25.0016C25.1349 19.225 25.2766 19.1583 25.4266 19.025C25.5932 18.8917 25.7682 18.6417 25.9516 18.275C26.0849 18.0417 26.2016 17.7667 26.3016 17.45C26.4016 17.1333 26.5099 16.7917 26.6266 16.425C26.6932 16.275 26.7599 16.2 26.8266 16.2C26.9099 16.2 26.9516 16.3 26.9516 16.5V16.6C26.9182 17.0333 26.8016 17.525 26.6016 18.075C26.4016 18.625 26.1182 19.1 25.7516 19.5C25.4016 19.9 24.9766 20.1 24.4766 20.1C23.9099 20.1 23.4599 19.9 23.1266 19.5C22.7932 19.0833 22.5516 18.5833 22.4016 18C22.2516 17.4 22.1599 16.825 22.1266 16.275C22.0099 16.7083 21.8766 17.1417 21.7266 17.575C21.5766 18.0083 21.3932 18.3917 21.1766 18.725C20.5766 19.6417 19.9266 20.1 19.2266 20.1ZM29.5039 20.125C29.2372 20.125 28.9789 20.0833 28.7289 20C28.4956 19.9333 28.3039 19.8083 28.1539 19.625C28.0872 19.5583 28.0539 19.4417 28.0539 19.275C28.0539 19.1083 28.0956 19.025 28.1789 19.025C28.2289 19.025 28.2872 19.0583 28.3539 19.125C28.5706 19.3417 28.8206 19.45 29.1039 19.45C29.3706 19.45 29.6122 19.3583 29.8289 19.175C30.1622 18.9083 30.4206 18.5333 30.6039 18.05C30.8039 17.5667 30.9539 17.0417 31.0539 16.475C31.1706 15.8917 31.2372 15.3167 31.2539 14.75C31.2706 14.6 31.2789 14.4167 31.2789 14.2C31.2789 13.9667 31.2789 13.725 31.2789 13.475C31.2789 13.0583 31.2539 12.6417 31.2039 12.225C31.1706 11.7917 31.0956 11.4333 30.9789 11.15C30.8622 10.8667 30.6872 10.725 30.4539 10.725C30.2539 10.725 30.0622 10.8583 29.8789 11.125C29.6956 11.375 29.5206 11.6833 29.3539 12.05C29.2039 12.4167 29.0706 12.7833 28.9539 13.15C28.8539 13.5 28.7789 13.7667 28.7289 13.95C28.5622 14.4833 28.3956 15.1 28.2289 15.8C28.0622 16.4833 27.9622 17.1083 27.9289 17.675C27.9122 18.0583 27.8789 18.4083 27.8289 18.725C27.7789 19.0417 27.6872 19.2917 27.5539 19.475C27.2706 19.8917 26.9122 20.1 26.4789 20.1C26.5122 19.9667 26.5372 19.725 26.5539 19.375C26.5706 19.025 26.5872 18.6083 26.6039 18.125C26.6206 17.8417 26.6289 17.55 26.6289 17.25C26.6456 16.9333 26.6539 16.6167 26.6539 16.3C26.6539 15.2 26.6289 14.05 26.5789 12.85C26.5289 11.6333 26.4872 10.4167 26.4539 9.2C26.4539 9.01667 26.4456 8.75 26.4289 8.4C26.4122 8.05 26.4039 7.66667 26.4039 7.25C26.4039 6.8 26.4122 6.325 26.4289 5.825C26.4622 5.325 26.5122 4.84167 26.5789 4.375C26.6456 3.95833 26.7622 3.48333 26.9289 2.95C27.0956 2.41667 27.3372 1.95833 27.6539 1.575C27.9706 1.175 28.3706 0.974999 28.8539 0.974999C29.3206 0.974999 29.6706 1.09167 29.9039 1.325C30.1372 1.54167 30.2956 1.825 30.3789 2.175C30.4789 2.50833 30.5289 2.86667 30.5289 3.25C30.5289 3.46667 30.5206 3.69167 30.5039 3.925C30.4872 4.14167 30.4622 4.34167 30.4289 4.525C30.3456 5.175 30.1706 5.96667 29.9039 6.9C29.6539 7.83333 29.3456 8.79167 28.9789 9.775C28.6289 10.7583 28.2622 11.65 27.8789 12.45L27.9539 15.425C28.0539 14.8417 28.1956 14.1917 28.3789 13.475C28.5622 12.7417 28.7872 12.0417 29.0539 11.375C29.3206 10.7083 29.6289 10.1583 29.9789 9.725C30.3456 9.275 30.7456 9.05 31.1789 9.05C31.8122 9.05 32.2706 9.34167 32.5539 9.925C32.8539 10.5083 33.0372 11.225 33.1039 12.075C33.1206 12.2417 33.1289 12.425 33.1289 12.625C33.1456 12.8083 33.1539 13.0083 33.1539 13.225C33.1539 14.0917 33.0706 15.0333 32.9039 16.05C32.7372 17.0667 32.4289 17.9417 31.9789 18.675H32.1789C32.7789 18.675 33.3706 18.4 33.9539 17.85C34.5539 17.2833 35.0622 16.4333 35.4789 15.3C35.5456 15.1333 35.6206 15.05 35.7039 15.05C35.8206 15.05 35.8789 15.1417 35.8789 15.325C35.8789 15.3917 35.8706 15.4417 35.8539 15.475C35.4039 16.775 34.8456 17.7167 34.1789 18.3C33.5289 18.8833 32.8872 19.175 32.2539 19.175C32.0206 19.175 31.8289 19.1417 31.6789 19.075C31.4956 19.2917 31.2956 19.4833 31.0789 19.65C30.8622 19.8 30.6206 19.9167 30.3539 20C30.1039 20.0833 29.8206 20.125 29.5039 20.125ZM27.8539 11.25C28.1706 10.4833 28.4622 9.69167 28.7289 8.875C29.0122 8.04167 29.2122 7.38333 29.3289 6.9C29.4289 6.45 29.5206 5.95 29.6039 5.4C29.6872 4.83333 29.7289 4.31667 29.7289 3.85C29.7289 3.41667 29.6789 3.05 29.5789 2.75C29.4956 2.45 29.3456 2.3 29.1289 2.3C28.9622 2.3 28.8122 2.49167 28.6789 2.875C28.5456 3.25833 28.4289 3.75833 28.3289 4.375C28.2289 4.975 28.1372 5.625 28.0539 6.325C27.9872 7.025 27.9372 7.71667 27.9039 8.4C27.8706 9.08333 27.8539 9.76667 27.8539 10.45V11.25ZM37.6803 20.25C37.1136 20.25 36.6469 20.075 36.2803 19.725C35.9303 19.375 35.6553 18.9333 35.4553 18.4C35.2553 17.85 35.1053 17.2917 35.0053 16.725C34.9219 16.1583 34.8719 15.6667 34.8553 15.25C34.8386 14.9667 34.8303 14.7083 34.8303 14.475C34.8303 14.2417 34.8303 14.025 34.8303 13.825V13.8C34.8303 12.9333 34.8553 12.0417 34.9053 11.125C34.9553 10.2083 35.0219 9.325 35.1053 8.475C35.1886 7.60833 35.2803 6.825 35.3803 6.125C35.4803 5.40833 35.5803 4.825 35.6803 4.375C35.7803 3.95833 35.9386 3.48333 36.1553 2.95C36.3719 2.41667 36.6553 1.95833 37.0053 1.575C37.3553 1.175 37.7719 0.974999 38.2553 0.974999C38.8386 0.974999 39.2386 1.2 39.4553 1.65C39.6719 2.08333 39.7803 2.625 39.7803 3.275C39.7803 3.825 39.7219 4.41667 39.6053 5.05C39.5053 5.66667 39.3719 6.26667 39.2053 6.85C39.0386 7.43333 38.8803 7.95 38.7303 8.4C38.5969 8.85 38.4886 9.175 38.4053 9.375C38.1386 10.075 37.8303 10.7833 37.4803 11.5C37.1469 12.2167 36.8136 12.8667 36.4803 13.45C36.4803 13.6167 36.4719 13.8 36.4553 14C36.4553 14.1833 36.4553 14.3917 36.4553 14.625C36.4553 15.1083 36.4719 15.625 36.5053 16.175C36.5386 16.725 36.6136 17.2417 36.7303 17.725C36.8469 18.1917 37.0136 18.575 37.2303 18.875C37.4469 19.175 37.7303 19.325 38.0803 19.325C38.4303 19.325 38.7386 19.1917 39.0053 18.925C39.3386 18.6083 39.5886 18.1833 39.7553 17.65C39.9386 17.1167 40.0969 16.575 40.2303 16.025C40.2803 15.7917 40.3636 15.675 40.4803 15.675C40.5636 15.675 40.6053 15.775 40.6053 15.975C40.6053 16.025 40.5969 16.0833 40.5803 16.15C40.5803 16.2167 40.5719 16.2917 40.5553 16.375C40.4553 16.9417 40.2969 17.525 40.0803 18.125C39.8803 18.725 39.5886 19.2333 39.2053 19.65C38.8386 20.05 38.3303 20.25 37.6803 20.25ZM36.5303 12.4C36.9636 11.5167 37.3636 10.5833 37.7303 9.6C38.0969 8.6 38.3886 7.61667 38.6053 6.65C38.8386 5.66667 38.9553 4.775 38.9553 3.975C38.9553 3.49167 38.9136 3.09167 38.8303 2.775C38.7636 2.45833 38.6303 2.3 38.4303 2.3C38.2303 2.3 38.0386 2.51667 37.8553 2.95C37.6886 3.38333 37.5303 3.95 37.3803 4.65C37.2469 5.35 37.1303 6.10833 37.0303 6.925C36.9303 7.725 36.8386 8.50833 36.7553 9.275C36.6886 10.025 36.6303 10.6833 36.5803 11.25C36.5469 11.8167 36.5303 12.2 36.5303 12.4ZM42.5043 7.35C42.1876 7.35 41.9043 7.23333 41.6543 7C41.421 6.76667 41.3043 6.48333 41.3043 6.15C41.3043 5.81667 41.421 5.53333 41.6543 5.3C41.9043 5.06667 42.1876 4.95 42.5043 4.95C42.8376 4.95 43.121 5.06667 43.3543 5.3C43.5876 5.53333 43.7043 5.81667 43.7043 6.15C43.7043 6.48333 43.5876 6.76667 43.3543 7C43.121 7.23333 42.8376 7.35 42.5043 7.35ZM42.3293 20.125C41.7293 20.125 41.2543 19.875 40.9043 19.375C40.571 18.8583 40.3293 18.2083 40.1793 17.425C40.046 16.625 39.9793 15.7917 39.9793 14.925C39.9793 14.2083 40.0126 13.5167 40.0793 12.85C40.1626 12.1667 40.2543 11.575 40.3543 11.075C40.471 10.5583 40.5793 10.1917 40.6793 9.975C40.7793 9.775 40.9376 9.59167 41.1543 9.425C41.3876 9.24167 41.696 9.15 42.0793 9.15C42.296 9.15 42.5126 9.175 42.7293 9.225C42.5626 9.80833 42.3626 10.6167 42.1293 11.65C41.896 12.6833 41.7793 13.825 41.7793 15.075C41.7793 15.5083 41.7876 15.975 41.8043 16.475C41.821 16.9583 41.8626 17.4167 41.9293 17.85C41.996 18.2667 42.096 18.6083 42.2293 18.875C42.3793 19.1417 42.571 19.275 42.8043 19.275H42.8293C42.9626 19.275 43.1043 19.2083 43.2543 19.075C43.421 18.9417 43.596 18.6917 43.7793 18.325C44.0293 17.8417 44.2626 17.2167 44.4793 16.45C44.5126 16.3 44.5793 16.225 44.6793 16.225C44.7626 16.225 44.8043 16.325 44.8043 16.525V16.625C44.771 17.0583 44.6543 17.55 44.4543 18.1C44.2543 18.65 43.971 19.125 43.6043 19.525C43.2543 19.925 42.8293 20.125 42.3293 20.125ZM47.7256 20.475C46.9589 20.475 46.3423 20.2917 45.8756 19.925C45.4256 19.5417 45.0923 19.0583 44.8756 18.475C44.6756 17.875 44.5506 17.2417 44.5006 16.575C44.4839 16.4583 44.4756 16.3417 44.4756 16.225C44.4756 16.0917 44.4756 15.9667 44.4756 15.85C44.4756 15.1667 44.5423 14.4333 44.6756 13.65C44.8256 12.8667 45.0673 12.1333 45.4006 11.45C45.7339 10.75 46.1756 10.1833 46.7256 9.75C47.2756 9.31667 47.9506 9.1 48.7506 9.1C49.2339 9.1 49.6256 9.29167 49.9256 9.675C50.2423 10.0417 50.4006 10.4667 50.4006 10.95C50.4006 11.4667 50.3173 11.85 50.1506 12.1C49.9839 12.3333 49.7839 12.45 49.5506 12.45C49.1506 12.45 48.9506 12.025 48.9506 11.175C48.9506 10.8417 48.9006 10.5333 48.8006 10.25C48.7006 9.96667 48.5089 9.825 48.2256 9.825C47.9089 9.825 47.6423 9.98333 47.4256 10.3C47.2256 10.6 47.0589 10.9917 46.9256 11.475C46.7923 11.9417 46.6839 12.4417 46.6006 12.975C46.5339 13.4917 46.4839 13.9833 46.4506 14.45C46.4339 14.9 46.4256 15.25 46.4256 15.5V15.6C46.4256 16.2667 46.4923 16.8917 46.6256 17.475C46.7589 18.0583 46.9839 18.525 47.3006 18.875C47.6173 19.225 48.0423 19.4 48.5756 19.4C49.5589 19.4 50.2923 18.5667 50.7756 16.9C50.8256 16.7 50.9173 16.6 51.0506 16.6C51.1673 16.6 51.2256 16.7167 51.2256 16.95C51.2256 17.0667 51.2006 17.2167 51.1506 17.4C50.8839 18.3167 50.4756 19.0583 49.9256 19.625C49.3756 20.1917 48.6423 20.475 47.7256 20.475ZM58.1805 20.275C57.4305 20.275 56.7971 20.1 56.2805 19.75C55.7805 19.3833 55.5305 18.7417 55.5305 17.825C55.5305 17.7917 55.5305 17.7167 55.5305 17.6C55.5471 17.4667 55.5638 17.3333 55.5805 17.2C55.4805 17.0167 55.4305 16.7667 55.4305 16.45C55.4305 16.25 55.4638 16.075 55.5305 15.925C55.5971 15.775 55.6971 15.7 55.8305 15.7H55.8555C55.9055 15.7 55.9721 15.7583 56.0555 15.875C56.2721 15.2583 56.4721 14.625 56.6555 13.975C56.8388 13.3083 57.0055 12.7167 57.1555 12.2C57.3221 11.6 57.5305 10.9583 57.7805 10.275C58.0471 9.575 58.4638 9.04167 59.0305 8.675C59.4638 8.39167 59.9305 8.25 60.4305 8.25C60.4638 8.25 60.5055 8.25833 60.5555 8.275C60.6055 8.275 60.6471 8.275 60.6805 8.275C60.8138 8.29167 60.8805 8.35 60.8805 8.45C60.8805 8.56667 60.8221 8.625 60.7055 8.625C60.5221 8.64167 60.3888 8.79167 60.3055 9.075C60.2221 9.34167 60.1805 9.65 60.1805 10C60.1805 10.0833 60.1805 10.175 60.1805 10.275C60.1805 10.375 60.1888 10.4667 60.2055 10.55C60.2721 11.1 60.4221 11.7083 60.6555 12.375C60.8888 13.025 61.1055 13.6833 61.3055 14.35C61.5221 15 61.6305 15.6083 61.6305 16.175V16.3C61.6305 16.5167 61.6138 16.75 61.5805 17C61.5638 17.25 61.5138 17.4917 61.4305 17.725C61.6638 17.7083 61.8888 17.6833 62.1055 17.65C62.3388 17.6 62.5471 17.5417 62.7305 17.475C62.9638 17.375 63.1471 17.2583 63.2805 17.125C63.4305 16.9917 63.5555 16.8417 63.6555 16.675C63.6888 16.625 63.7305 16.6 63.7805 16.6C63.9138 16.6 63.9805 16.6833 63.9805 16.85C63.9805 16.9 63.9638 16.9583 63.9305 17.025C63.7471 17.3917 63.4138 17.6917 62.9305 17.925C62.4471 18.1583 61.8805 18.2917 61.2305 18.325C60.9971 18.8583 60.6305 19.3167 60.1305 19.7C59.6471 20.0833 58.9971 20.275 58.1805 20.275ZM59.3805 17.45C59.4138 17.2667 59.4388 17.075 59.4555 16.875C59.4721 16.675 59.4805 16.475 59.4805 16.275C59.4805 15.9583 59.4638 15.6417 59.4305 15.325C59.3971 14.9917 59.3555 14.6667 59.3055 14.35C59.1888 13.5667 59.0471 12.85 58.8805 12.2C58.7305 11.55 58.6555 10.9667 58.6555 10.45C58.6555 10.1833 58.6805 9.94167 58.7305 9.725C58.6471 9.725 58.5555 9.85 58.4555 10.1C58.3555 10.35 58.2555 10.6333 58.1555 10.95C58.0555 11.2667 57.9721 11.55 57.9055 11.8C57.7055 12.5167 57.4888 13.2583 57.2555 14.025C57.0221 14.775 56.7721 15.5167 56.5055 16.25C56.6888 16.3667 56.8971 16.4833 57.1305 16.6C57.3805 16.7167 57.6221 16.825 57.8555 16.925C58.0721 17.025 58.3055 17.125 58.5555 17.225C58.8221 17.3083 59.0971 17.3833 59.3805 17.45ZM57.5055 19.45H57.6055C57.9055 19.4167 58.2055 19.3167 58.5055 19.15C58.8055 18.9667 59.0221 18.6917 59.1555 18.325C59.1555 18.3083 59.1555 18.3 59.1555 18.3C59.1721 18.2833 59.1805 18.2667 59.1805 18.25C58.5638 18.2 57.9805 18.125 57.4305 18.025C56.8971 17.9083 56.4638 17.7667 56.1305 17.6C56.1305 17.65 56.1221 17.7 56.1055 17.75C56.1055 17.8 56.1055 17.8417 56.1055 17.875C56.1055 18.375 56.2305 18.7667 56.4805 19.05C56.7471 19.3167 57.0888 19.45 57.5055 19.45ZM67.6162 20.475C66.7995 20.475 66.0995 20.2833 65.5162 19.9C64.9495 19.5167 64.5079 19.0083 64.1912 18.375C63.8912 17.725 63.7245 17.025 63.6912 16.275V15.775C63.6912 14.975 63.7745 14.175 63.9412 13.375C64.1245 12.575 64.3995 11.8417 64.7662 11.175C65.1329 10.5083 65.5995 9.975 66.1662 9.575C66.7329 9.15833 67.4079 8.95 68.1912 8.95H68.3662C68.8329 8.96667 69.1662 9.14167 69.3662 9.475C69.5829 9.80833 69.6912 10.1667 69.6912 10.55V10.65C69.6912 11.55 69.4829 12.3333 69.0662 13C68.6662 13.65 68.1579 14.175 67.5412 14.575C66.9245 14.975 66.2829 15.25 65.6162 15.4V15.525C65.6162 15.9417 65.6495 16.3917 65.7162 16.875C65.7829 17.3417 65.9079 17.7917 66.0912 18.225C66.2745 18.6583 66.5329 19.0167 66.8662 19.3C67.1995 19.5667 67.6245 19.7 68.1412 19.7C68.7745 19.7 69.3079 19.5 69.7412 19.1C70.1745 18.7 70.5079 18.225 70.7412 17.675C70.8412 17.4417 70.9245 17.1833 70.9912 16.9C71.0745 16.6 71.1495 16.2833 71.2162 15.95C71.2495 15.75 71.3162 15.65 71.4162 15.65C71.5495 15.65 71.6162 15.7917 71.6162 16.075C71.6162 16.125 71.6079 16.1833 71.5912 16.25C71.5912 16.3 71.5829 16.3667 71.5662 16.45C71.4662 17.0333 71.3245 17.55 71.1412 18C70.8079 18.8667 70.3662 19.5 69.8162 19.9C69.2829 20.2833 68.5495 20.475 67.6162 20.475ZM65.6412 14.85C66.1579 14.7 66.6079 14.4333 66.9912 14.05C67.3912 13.65 67.7079 13.1833 67.9412 12.65C68.1745 12.1167 68.2995 11.575 68.3162 11.025V10.875C68.3162 10.5917 68.2662 10.3167 68.1662 10.05C68.0662 9.78333 67.8995 9.65 67.6662 9.65H67.6412C67.3412 9.65 67.0745 9.8 66.8412 10.1C66.6245 10.3833 66.4412 10.75 66.2912 11.2C66.1412 11.65 66.0162 12.1167 65.9162 12.6C65.8162 13.0833 65.7412 13.525 65.6912 13.925C65.6579 14.325 65.6412 14.6167 65.6412 14.8V14.85ZM71.8607 20.2C71.6274 20.2 71.4274 20.1167 71.2607 19.95C71.1107 19.7667 71.0357 19.4667 71.0357 19.05C71.0357 18.9833 71.0357 18.9167 71.0357 18.85C71.0357 18.7667 71.0441 18.6833 71.0607 18.6C71.0941 18.3 71.1274 17.8833 71.1607 17.35C71.2107 16.8167 71.2441 16.2167 71.2607 15.55C71.2941 14.8833 71.3107 14.2167 71.3107 13.55C71.3107 12.85 71.2857 12.1917 71.2357 11.575C71.2024 10.9417 71.1357 10.4417 71.0357 10.075C71.1691 10.0417 71.3441 9.95 71.5607 9.8C71.7774 9.65 72.0024 9.55 72.2357 9.5C72.2857 9.48333 72.3524 9.475 72.4357 9.475C72.7191 9.475 72.8941 9.625 72.9607 9.925C73.0441 10.225 73.0857 10.5917 73.0857 11.025C73.0857 11.325 73.0774 11.6833 73.0607 12.1C73.0607 12.5 73.0441 12.85 73.0107 13.15C73.1941 12.6167 73.3941 12.1583 73.6107 11.775C73.8274 11.375 74.0607 10.9917 74.3107 10.625C74.5607 10.2417 74.8274 9.86667 75.1107 9.5C75.3941 9.11667 75.7774 8.925 76.2607 8.925C76.7607 8.925 77.0857 9.09167 77.2357 9.425C77.3857 9.75833 77.4607 10.125 77.4607 10.525C77.4607 10.7417 77.4524 10.95 77.4357 11.15C77.4191 11.3333 77.4024 11.5083 77.3857 11.675C77.3857 11.7917 77.3607 12.1 77.3107 12.6C77.2607 13.0833 77.2107 13.6583 77.1607 14.325C77.1107 14.975 77.0857 15.6333 77.0857 16.3C77.0857 16.4833 77.0941 16.7417 77.1107 17.075C77.1274 17.3917 77.1607 17.7167 77.2107 18.05C77.2607 18.3667 77.3441 18.6417 77.4607 18.875C77.5941 19.0917 77.7691 19.2 77.9857 19.2C78.1191 19.2 78.2691 19.15 78.4357 19.05C78.6191 18.9167 78.7774 18.7417 78.9107 18.525C79.0607 18.3083 79.1774 18.0917 79.2607 17.875C79.3274 17.725 79.3941 17.5583 79.4607 17.375C79.5274 17.1917 79.5857 17 79.6357 16.8C79.7024 16.6 79.7941 16.5 79.9107 16.5C79.9941 16.5 80.0357 16.5833 80.0357 16.75V16.85C80.0357 16.9667 80.0107 17.1167 79.9607 17.3C79.9274 17.4833 79.8774 17.6667 79.8107 17.85C79.6107 18.4667 79.3107 19.0083 78.9107 19.475C78.5274 19.925 77.9857 20.15 77.2857 20.15C76.8191 20.15 76.4524 19.975 76.1857 19.625C75.9357 19.2583 75.7524 18.7917 75.6357 18.225C75.5691 17.9083 75.5191 17.5917 75.4857 17.275C75.4691 16.9583 75.4607 16.6417 75.4607 16.325C75.4607 15.5417 75.5107 14.7667 75.6107 14C75.7274 13.2167 75.7857 12.4667 75.7857 11.75C75.7857 11.5167 75.7524 11.3 75.6857 11.1C75.6357 10.8833 75.5107 10.775 75.3107 10.775C75.1107 10.775 74.8691 10.9667 74.5857 11.35C74.3024 11.7167 74.0107 12.2583 73.7107 12.975C73.4107 13.675 73.1607 14.475 72.9607 15.375C72.7607 16.2583 72.6607 17.1667 72.6607 18.1C72.6607 18.6667 72.7107 19.2417 72.8107 19.825C72.6941 19.9083 72.5441 19.9917 72.3607 20.075C72.1774 20.1583 72.0107 20.2 71.8607 20.2ZM82.2039 20.275C81.4539 20.275 80.8206 20.1 80.3039 19.75C79.8039 19.3833 79.5539 18.7417 79.5539 17.825C79.5539 17.7917 79.5539 17.7167 79.5539 17.6C79.5706 17.4667 79.5872 17.3333 79.6039 17.2C79.5039 17.0167 79.4539 16.7667 79.4539 16.45C79.4539 16.25 79.4872 16.075 79.5539 15.925C79.6206 15.775 79.7206 15.7 79.8539 15.7H79.8789C79.9289 15.7 79.9956 15.7583 80.0789 15.875C80.2956 15.2583 80.4956 14.625 80.6789 13.975C80.8622 13.3083 81.0289 12.7167 81.1789 12.2C81.3456 11.6 81.5539 10.9583 81.8039 10.275C82.0706 9.575 82.4872 9.04167 83.0539 8.675C83.4872 8.39167 83.9539 8.25 84.4539 8.25C84.4872 8.25 84.5289 8.25833 84.5789 8.275C84.6289 8.275 84.6706 8.275 84.7039 8.275C84.8372 8.29167 84.9039 8.35 84.9039 8.45C84.9039 8.56667 84.8456 8.625 84.7289 8.625C84.5456 8.64167 84.4122 8.79167 84.3289 9.075C84.2456 9.34167 84.2039 9.65 84.2039 10C84.2039 10.0833 84.2039 10.175 84.2039 10.275C84.2039 10.375 84.2122 10.4667 84.2289 10.55C84.2956 11.1 84.4456 11.7083 84.6789 12.375C84.9122 13.025 85.1289 13.6833 85.3289 14.35C85.5456 15 85.6539 15.6083 85.6539 16.175V16.3C85.6539 16.5167 85.6372 16.75 85.6039 17C85.5872 17.25 85.5372 17.4917 85.4539 17.725C85.6872 17.7083 85.9122 17.6833 86.1289 17.65C86.3622 17.6 86.5706 17.5417 86.7539 17.475C86.9872 17.375 87.1706 17.2583 87.3039 17.125C87.4539 16.9917 87.5789 16.8417 87.6789 16.675C87.7122 16.625 87.7539 16.6 87.8039 16.6C87.9372 16.6 88.0039 16.6833 88.0039 16.85C88.0039 16.9 87.9872 16.9583 87.9539 17.025C87.7706 17.3917 87.4372 17.6917 86.9539 17.925C86.4706 18.1583 85.9039 18.2917 85.2539 18.325C85.0206 18.8583 84.6539 19.3167 84.1539 19.7C83.6706 20.0833 83.0206 20.275 82.2039 20.275ZM83.4039 17.45C83.4372 17.2667 83.4622 17.075 83.4789 16.875C83.4956 16.675 83.5039 16.475 83.5039 16.275C83.5039 15.9583 83.4872 15.6417 83.4539 15.325C83.4206 14.9917 83.3789 14.6667 83.3289 14.35C83.2122 13.5667 83.0706 12.85 82.9039 12.2C82.7539 11.55 82.6789 10.9667 82.6789 10.45C82.6789 10.1833 82.7039 9.94167 82.7539 9.725C82.6706 9.725 82.5789 9.85 82.4789 10.1C82.3789 10.35 82.2789 10.6333 82.1789 10.95C82.0789 11.2667 81.9956 11.55 81.9289 11.8C81.7289 12.5167 81.5122 13.2583 81.2789 14.025C81.0456 14.775 80.7956 15.5167 80.5289 16.25C80.7122 16.3667 80.9206 16.4833 81.1539 16.6C81.4039 16.7167 81.6456 16.825 81.8789 16.925C82.0956 17.025 82.3289 17.125 82.5789 17.225C82.8456 17.3083 83.1206 17.3833 83.4039 17.45ZM81.5289 19.45H81.6289C81.9289 19.4167 82.2289 19.3167 82.5289 19.15C82.8289 18.9667 83.0456 18.6917 83.1789 18.325C83.1789 18.3083 83.1789 18.3 83.1789 18.3C83.1956 18.2833 83.2039 18.2667 83.2039 18.25C82.5872 18.2 82.0039 18.125 81.4539 18.025C80.9206 17.9083 80.4872 17.7667 80.1539 17.6C80.1539 17.65 80.1456 17.7 80.1289 17.75C80.1289 17.8 80.1289 17.8417 80.1289 17.875C80.1289 18.375 80.2539 18.7667 80.5039 19.05C80.7706 19.3167 81.1122 19.45 81.5289 19.45ZM91.0146 20.475C90.2146 20.475 89.5646 20.2333 89.0646 19.75C88.5813 19.25 88.223 18.6417 87.9896 17.925C87.773 17.1917 87.6646 16.475 87.6646 15.775C87.6646 14.975 87.748 14.175 87.9146 13.375C88.0813 12.5583 88.3396 11.8167 88.6896 11.15C89.0563 10.4833 89.5146 9.95 90.0646 9.55C90.6146 9.13333 91.2646 8.925 92.0146 8.925C92.548 8.925 92.9646 9.08333 93.2646 9.4C93.5646 9.71667 93.7146 10.1833 93.7146 10.8C93.7146 11.6333 93.5063 12.375 93.0896 13.025C92.6896 13.6583 92.1813 14.175 91.5646 14.575C90.948 14.975 90.3063 15.25 89.6396 15.4V15.525C89.6396 16.2083 89.7063 16.85 89.8396 17.45C89.9896 18.0333 90.223 18.5083 90.5396 18.875C90.873 19.225 91.3063 19.4 91.8396 19.4C92.4896 19.4 92.9896 19.1333 93.3396 18.6C93.6896 18.05 93.9646 17.3583 94.1646 16.525C94.1813 16.4583 94.2063 16.4 94.2396 16.35C94.2896 16.2833 94.3313 16.25 94.3646 16.25C94.5146 16.25 94.5813 16.3583 94.5646 16.575C94.5146 17.025 94.4146 17.45 94.2646 17.85C94.1146 18.25 93.9563 18.5917 93.7896 18.875C93.473 19.3917 93.0896 19.7833 92.6396 20.05C92.2063 20.3333 91.6646 20.475 91.0146 20.475ZM89.6646 14.825C90.198 14.6917 90.6646 14.4333 91.0646 14.05C91.4646 13.65 91.773 13.1833 91.9896 12.65C92.223 12.1167 92.3396 11.575 92.3396 11.025V10.9C92.3396 10.6 92.2896 10.3167 92.1896 10.05C92.1063 9.78333 91.9396 9.65 91.6896 9.65C91.3896 9.65 91.123 9.8 90.8896 10.1C90.673 10.3833 90.4813 10.75 90.3146 11.2C90.1646 11.65 90.0396 12.1167 89.9396 12.6C89.8396 13.0833 89.7646 13.525 89.7146 13.925C89.6813 14.325 89.6646 14.6167 89.6646 14.8V14.825Z" fill="black"/>
</svg>
